<svg width="216" height="37" viewBox="0 0 216 37" fill="none" xmlns="http://www.w3.org/2000/svg">
<path fill-rule="evenodd" clip-rule="evenodd" d="M141.617 18.6741C141.617 24.4309 145.856 28.3036 151.337 28.3036C155.577 28.3036 157.852 26.0009 159.196 23.6982L155.784 22.0235C155.06 23.5935 153.302 24.7449 151.337 24.7449C148.131 24.7449 145.65 22.1282 145.65 18.5694C145.65 15.0107 148.131 12.3939 151.337 12.3939C153.405 12.3939 155.06 13.5453 155.784 15.1153L159.196 13.4406C157.852 11.1379 155.577 8.83521 151.337 8.83521C145.96 9.04454 141.617 12.9173 141.617 18.6741ZM63.9583 27.9896V9.35855H71.1968C76.9876 9.35855 81.0204 13.1266 81.0204 18.6741C81.0204 24.3262 76.9876 27.9896 71.1968 27.9896H63.9583ZM67.8878 24.5355H71.1968C74.816 24.5355 76.9876 21.9188 76.9876 18.6741C76.9876 15.3247 75.0228 12.8126 71.1968 12.8126H67.8878V24.5355ZM93.4292 26.3149V27.9896H96.9451V14.4873H93.4292V23.5935C92.8088 24.3262 91.7747 25.1635 90.4304 25.1635C88.9827 25.1635 87.9487 24.5355 87.9487 22.6515V14.4873H84.4329V24.1169C84.4329 26.7336 85.7771 28.4083 88.7759 28.4083C90.9475 28.3036 92.4986 27.3616 93.4292 26.3149ZM104.701 33.1184H101.185V14.4873H104.701V16.162C105.735 14.8013 107.182 14.0686 108.837 14.0686C112.249 14.0686 114.731 16.6854 114.731 21.1861C114.731 25.6869 112.249 28.3036 108.837 28.3036C107.286 28.3036 105.838 27.6756 104.701 26.2102V33.1184ZM107.699 17.3134C109.768 17.3134 111.112 18.8834 111.112 21.1861C111.112 23.4888 109.768 25.1635 107.699 25.1635C106.562 25.1635 105.218 24.4309 104.701 23.5935V18.7787C105.321 17.9414 106.562 17.3134 107.699 17.3134ZM118.143 27.9896V9.35855H121.659V27.9896H118.143ZM124.968 21.1861C124.968 25.0589 127.657 28.3036 132 28.3036C136.446 28.3036 139.032 25.0589 139.032 21.1861C139.032 17.3134 136.343 14.0686 132 14.0686C127.657 14.1733 124.968 17.4181 124.968 21.1861ZM132 25.1635C134.172 25.1635 135.412 23.3842 135.412 21.1861C135.412 19.0928 134.172 17.3134 132 17.3134C129.828 17.3134 128.588 19.0928 128.588 21.1861C128.588 23.3842 129.828 25.1635 132 25.1635ZM162.195 27.9896V9.35855H165.711V27.9896H162.195ZM169.02 21.1861C169.02 25.0589 171.708 28.3036 176.051 28.3036C180.498 28.3036 183.083 25.0589 183.083 21.1861C183.083 17.3134 180.394 14.0686 176.051 14.0686C171.708 14.1733 169.02 17.4181 169.02 21.1861ZM176.155 25.1635C178.326 25.1635 179.567 23.3842 179.567 21.1861C179.567 19.0928 178.326 17.3134 176.155 17.3134C173.983 17.3134 172.742 19.0928 172.742 21.1861C172.742 23.3842 173.88 25.1635 176.155 25.1635ZM195.595 26.3149V27.9896H199.111V14.4873H195.595V23.5935C194.975 24.3262 193.941 25.1635 192.596 25.1635C191.149 25.1635 190.115 24.5355 190.115 22.6515V14.4873H186.495V24.1169C186.495 26.7336 187.84 28.4083 190.838 28.4083C193.01 28.3036 194.664 27.3616 195.595 26.3149ZM212.45 27.9896V26.3149C211.416 27.6756 209.969 28.4083 208.314 28.4083C204.902 28.4083 202.42 25.7916 202.42 21.2908C202.42 16.8947 204.902 14.1733 208.314 14.1733C209.865 14.1733 211.416 14.906 212.45 16.2667V9.35855H215.966V27.9896H212.45ZM212.45 18.8834V23.6982C211.83 24.6402 210.589 25.2682 209.452 25.2682C207.487 25.2682 206.039 23.6982 206.039 21.3955C206.039 19.0928 207.383 17.4181 209.452 17.4181C210.589 17.3134 211.83 17.9414 212.45 18.8834Z" fill="black"/>
<path d="M35.2198 29.2044C35.8402 30.4605 35.4266 32.1352 34.2891 32.9725C33.1517 33.8099 31.4972 33.7052 30.4631 32.6585C29.429 31.6118 29.3256 30.0418 30.1529 28.7858C30.9801 27.6344 32.5312 27.2157 33.8755 27.8437L35.1164 26.5877L28.4984 19.8889L11.6431 36.9499H44.5264C44.7332 36.9499 45.0434 36.9499 45.3537 36.9499L36.4607 27.9484L35.2198 29.2044Z" fill="#00C853"/>
<path d="M14.0214 27.2654C12.6771 27.7888 11.126 27.2655 10.4022 26.0094C9.67835 24.7534 9.88517 23.1834 11.0226 22.2413C12.1601 21.2993 13.7112 21.2993 14.8487 22.2413C15.9862 23.1834 16.193 24.7534 15.4691 26.0094L17.6407 28.2075L27.3609 18.4733L19.1918 10.3091C17.6407 9.05307 13.6078 6.12234 9.36813 9.15773C5.12845 12.0885 6.36934 17.3219 6.47274 17.8453C6.05911 17.9499 0.0615234 20.462 0.0615234 27.7888C0.0615234 34.6969 6.47274 36.7903 9.16132 36.9997L16.3998 29.6728L14.0214 27.2654Z" fill="#0091EA"/>
<path d="M49.0763 15.1238L45.8707 18.3685L47.732 20.2526C48.9729 19.6245 50.6274 19.9385 51.4547 21.0899C52.2819 22.2413 52.1785 23.916 51.2479 24.9627C50.2138 26.0093 48.6627 26.114 47.4218 25.3813C46.2843 24.544 45.8707 22.9739 46.4912 21.7179L44.5264 19.7292L37.9084 26.428L47.8354 36.4762C51.6615 35.6389 56.3148 33.1268 56.9352 26.5327C57.6591 18.8919 50.7308 15.7518 49.0763 15.1238Z" fill="#FFD600"/>
<path d="M26.3268 9.3669C25.603 8.11087 26.0166 6.43617 27.1541 5.59882C28.2915 4.76147 29.9461 4.76147 30.9801 5.80816C32.0142 6.85485 32.221 8.42488 31.3938 9.68091C30.5665 10.9369 29.0154 11.3556 27.7745 10.7276L25.0859 13.449L36.5641 25.0672L48.4559 13.0303C47.732 9.05289 45.1469 3.61011 37.805 0.888719C30.2563 -1.93734 22.6042 3.2961 19.8122 8.21554L23.6382 12.0883L26.3268 9.3669Z" fill="#D50000"/>
</svg>
