<?xml version="1.0" encoding="UTF-8"?>
<svg xmlns="http://www.w3.org/2000/svg" xmlns:xlink="http://www.w3.org/1999/xlink" width="320pt" height="59pt" viewBox="0 0 320 59" version="1.1">
<g id="surface1">
<path style=" stroke:none;fill-rule:nonzero;fill:rgb(4.705882%,16.862745%,53.333333%);fill-opacity:1;" d="M 103.097656 31.234375 L 103.097656 5 L 113.429688 5 C 121.636719 5 127.332031 10.230469 127.332031 18.136719 C 127.332031 26.042969 121.636719 31.234375 113.429688 31.234375 Z M 108.675781 26.320312 L 113.429688 26.320312 C 118.613281 26.320312 121.636719 22.582031 121.636719 18.136719 C 121.636719 13.496094 118.808594 9.917969 113.429688 9.917969 L 108.675781 9.917969 Z M 145.035156 31.234375 L 145.035156 28.835938 C 143.738281 30.292969 141.460938 31.707031 138.355469 31.707031 C 134.191406 31.707031 132.230469 29.425781 132.230469 25.730469 L 132.230469 12.238281 L 137.21875 12.238281 L 137.21875 23.761719 C 137.21875 26.398438 138.59375 27.261719 140.714844 27.261719 C 142.636719 27.261719 144.167969 26.199219 145.035156 25.097656 L 145.035156 12.238281 L 150.023438 12.238281 L 150.023438 31.234375 Z M 161.007812 38.472656 L 156.019531 38.472656 L 156.019531 12.238281 L 161.007812 12.238281 L 161.007812 14.636719 C 162.460938 12.789062 164.542969 11.765625 166.859375 11.765625 C 171.730469 11.765625 175.265625 15.382812 175.265625 21.714844 C 175.265625 28.050781 171.730469 31.707031 166.859375 31.707031 C 164.621094 31.707031 162.539062 30.761719 161.007812 28.796875 Z M 170.078125 21.714844 C 170.078125 18.453125 168.15625 16.210938 165.289062 16.210938 C 163.675781 16.210938 161.832031 17.152344 161.007812 18.375 L 161.007812 25.097656 C 161.832031 26.277344 163.675781 27.261719 165.289062 27.261719 C 168.15625 27.261719 170.078125 25.019531 170.078125 21.714844 Z M 180.042969 31.234375 L 180.042969 5 L 185.03125 5 L 185.03125 31.234375 Z M 199.828125 31.707031 C 193.582031 31.707031 189.808594 27.144531 189.808594 21.714844 C 189.808594 16.328125 193.582031 11.765625 199.828125 11.765625 C 206.109375 11.765625 209.882812 16.328125 209.882812 21.714844 C 209.882812 27.144531 206.109375 31.707031 199.828125 31.707031 Z M 199.828125 27.261719 C 202.929688 27.261719 204.695312 24.707031 204.695312 21.714844 C 204.695312 18.765625 202.929688 16.210938 199.828125 16.210938 C 196.722656 16.210938 194.996094 18.765625 194.996094 21.714844 C 194.996094 24.707031 196.722656 27.261719 199.828125 27.261719 Z M 227.230469 31.707031 C 219.570312 31.707031 213.480469 26.199219 213.480469 18.136719 C 213.480469 10.074219 219.570312 4.566406 227.230469 4.566406 C 233.199219 4.566406 236.539062 7.714844 238.382812 10.980469 L 233.59375 13.339844 C 232.492188 11.214844 230.136719 9.523438 227.230469 9.523438 C 222.671875 9.523438 219.214844 13.179688 219.214844 18.136719 C 219.214844 23.09375 222.671875 26.75 227.230469 26.75 C 230.136719 26.75 232.492188 25.097656 233.59375 22.9375 L 238.382812 25.257812 C 236.5 28.519531 233.199219 31.707031 227.230469 31.707031 Z M 242.652344 31.234375 L 242.652344 5 L 247.640625 5 L 247.640625 31.234375 Z M 262.433594 31.707031 C 256.191406 31.707031 252.417969 27.144531 252.417969 21.714844 C 252.417969 16.328125 256.191406 11.765625 262.433594 11.765625 C 268.71875 11.765625 272.492188 16.328125 272.492188 21.714844 C 272.492188 27.144531 268.71875 31.707031 262.433594 31.707031 Z M 262.433594 27.261719 C 265.539062 27.261719 267.304688 24.707031 267.304688 21.714844 C 267.304688 18.765625 265.539062 16.210938 262.433594 16.210938 C 259.332031 16.210938 257.605469 18.765625 257.605469 21.714844 C 257.605469 24.707031 259.332031 27.261719 262.433594 27.261719 Z M 290.035156 31.234375 L 290.035156 28.835938 C 288.738281 30.292969 286.460938 31.707031 283.359375 31.707031 C 279.195312 31.707031 277.230469 29.425781 277.230469 25.730469 L 277.230469 12.238281 L 282.21875 12.238281 L 282.21875 23.761719 C 282.21875 26.398438 283.59375 27.261719 285.714844 27.261719 C 287.640625 27.261719 289.171875 26.199219 290.035156 25.097656 L 290.035156 12.238281 L 295.023438 12.238281 L 295.023438 31.234375 Z M 314.058594 31.234375 L 314.058594 28.835938 C 312.566406 30.683594 310.484375 31.707031 308.207031 31.707031 C 303.414062 31.707031 299.800781 28.089844 299.800781 21.757812 C 299.800781 15.542969 303.375 11.765625 308.207031 11.765625 C 310.445312 11.765625 312.566406 12.75 314.058594 14.675781 L 314.058594 5 L 319.085938 5 L 319.085938 31.234375 Z M 314.058594 25.097656 L 314.058594 18.375 C 313.195312 17.113281 311.429688 16.210938 309.738281 16.210938 C 306.910156 16.210938 304.949219 18.453125 304.949219 21.757812 C 304.949219 25.019531 306.910156 27.261719 309.738281 27.261719 C 311.429688 27.261719 313.195312 26.359375 314.058594 25.097656 Z M 314.058594 25.097656 "/>
<path style=" stroke:none;fill-rule:nonzero;fill:rgb(4.705882%,16.862745%,53.333333%);fill-opacity:1;" d="M 108.242188 44.726562 C 110.636719 44.726562 112.835938 46.605469 112.835938 49.359375 C 112.835938 52.242188 110.832031 55.53125 105.929688 55.53125 L 101.9375 55.53125 L 104.3125 44.726562 Z M 106.269531 53.859375 C 109.117188 53.859375 110.863281 51.835938 110.863281 49.472656 C 110.863281 47.722656 109.617188 46.394531 107.886719 46.394531 L 105.832031 46.394531 L 104.183594 53.859375 Z M 115.132812 45.503906 C 115.132812 44.742188 115.78125 44.304688 116.3125 44.304688 C 116.863281 44.304688 117.269531 44.726562 117.269531 45.210938 C 117.269531 45.972656 116.621094 46.410156 116.085938 46.410156 C 115.539062 46.410156 115.132812 46.007812 115.132812 45.503906 Z M 113.128906 55.53125 L 114.859375 47.707031 L 116.554688 47.707031 L 114.824219 55.53125 Z M 116.328125 57.359375 L 117.347656 56.226562 C 117.867188 56.953125 118.867188 57.3125 119.953125 57.3125 C 121.003906 57.3125 121.972656 56.808594 122.347656 55.125 L 122.539062 54.28125 C 121.925781 55.042969 121.050781 55.53125 120.035156 55.53125 C 118.433594 55.53125 117.074219 54.574219 117.074219 52.324219 C 117.074219 49.910156 118.59375 47.511719 121.132812 47.511719 C 122.121094 47.511719 123.171875 48.046875 123.738281 48.824219 L 123.996094 47.707031 L 125.695312 47.707031 L 124.042969 55.125 C 123.445312 57.925781 121.667969 58.703125 119.984375 58.703125 C 118.464844 58.703125 117.21875 58.363281 116.328125 57.359375 Z M 122.832031 52.96875 L 123.460938 50.136719 C 123.058594 49.441406 122.25 49.019531 121.328125 49.019531 C 119.839844 49.019531 118.835938 50.445312 118.835938 52.015625 C 118.835938 53.246094 119.613281 54.023438 120.792969 54.023438 C 121.570312 54.023438 122.347656 53.554688 122.832031 52.96875 Z M 127.925781 45.503906 C 127.925781 44.742188 128.574219 44.304688 129.105469 44.304688 C 129.65625 44.304688 130.0625 44.726562 130.0625 45.210938 C 130.0625 45.972656 129.414062 46.410156 128.878906 46.410156 C 128.332031 46.410156 127.925781 46.007812 127.925781 45.503906 Z M 125.921875 55.53125 L 127.652344 47.707031 L 129.347656 47.707031 L 127.617188 55.53125 Z M 130.289062 54.136719 C 130.289062 54.039062 130.304688 53.8125 130.335938 53.632812 L 131.324219 49.179688 L 130.027344 49.179688 L 130.367188 47.707031 L 131.660156 47.707031 L 132.132812 45.570312 L 133.828125 45.570312 L 133.359375 47.707031 L 134.945312 47.707031 L 134.605469 49.179688 L 133.019531 49.179688 L 132.132812 53.214844 C 132.113281 53.292969 132.097656 53.40625 132.097656 53.519531 C 132.097656 53.957031 132.359375 54.21875 132.875 54.21875 C 133.117188 54.21875 133.394531 54.121094 133.523438 54.007812 L 133.617188 55.367188 C 133.328125 55.59375 132.859375 55.722656 132.375 55.722656 C 131.113281 55.722656 130.289062 55.222656 130.289062 54.136719 Z M 141.480469 48.824219 L 141.722656 47.707031 L 143.421875 47.707031 L 141.691406 55.53125 L 139.992188 55.53125 L 140.21875 54.492188 C 139.570312 55.285156 138.761719 55.722656 137.777344 55.722656 C 135.996094 55.722656 134.785156 54.558594 134.785156 52.5 C 134.785156 50.054688 136.289062 47.511719 138.890625 47.511719 C 140.007812 47.511719 140.960938 48.015625 141.480469 48.824219 Z M 136.5625 52.160156 C 136.5625 53.425781 137.355469 54.21875 138.488281 54.21875 C 139.3125 54.21875 140.070312 53.730469 140.523438 53.117188 L 141.203125 50.085938 C 140.847656 49.488281 140.105469 49.019531 139.148438 49.019531 C 137.613281 49.019531 136.5625 50.523438 136.5625 52.160156 Z M 143.648438 55.53125 L 146.023438 44.726562 L 147.722656 44.726562 L 145.34375 55.53125 Z M 159.511719 55.53125 L 159.171875 47.5625 L 155.324219 55.53125 L 153.300781 55.53125 L 152.589844 44.726562 L 154.660156 44.726562 L 154.917969 53.050781 L 158.996094 44.726562 L 160.5 44.726562 L 160.886719 53.050781 L 164.816406 44.726562 L 166.984375 44.726562 L 161.535156 55.53125 Z M 165.222656 52.210938 C 165.222656 49.761719 167.082031 47.511719 169.667969 47.511719 C 172.046875 47.511719 173.421875 48.984375 173.421875 51.042969 C 173.421875 53.488281 171.5625 55.722656 168.972656 55.722656 C 166.597656 55.722656 165.222656 54.265625 165.222656 52.210938 Z M 171.660156 51.109375 C 171.660156 49.828125 170.898438 49.019531 169.621094 49.019531 C 168.066406 49.019531 166.984375 50.542969 166.984375 52.128906 C 166.984375 53.40625 167.746094 54.21875 169.023438 54.21875 C 170.574219 54.21875 171.660156 52.710938 171.660156 51.109375 Z M 173.957031 55.53125 L 175.6875 47.707031 L 177.382812 47.707031 L 177.125 48.808594 C 177.851562 48 178.679688 47.527344 179.957031 47.527344 L 179.582031 49.230469 C 179.46875 49.195312 179.195312 49.148438 178.886719 49.148438 C 178.078125 49.148438 177.285156 49.648438 176.816406 50.234375 L 175.652344 55.53125 Z M 184.582031 55.53125 L 182.867188 52.257812 L 181.476562 53.425781 L 181.023438 55.53125 L 179.324219 55.53125 L 181.703125 44.726562 L 183.402344 44.726562 L 181.929688 51.382812 L 186.117188 47.707031 L 188.300781 47.707031 L 184.257812 51.253906 L 186.636719 55.53125 Z M 187.816406 52.226562 C 187.816406 49.667969 189.722656 47.511719 192.28125 47.511719 C 194.300781 47.511719 195.722656 48.871094 195.722656 50.976562 C 195.722656 51.398438 195.644531 51.933594 195.578125 52.175781 L 189.53125 52.175781 L 189.515625 52.453125 C 189.515625 53.34375 190.304688 54.332031 191.890625 54.332031 C 192.601562 54.332031 193.429688 54.105469 193.976562 53.683594 L 194.511719 54.867188 C 193.785156 55.398438 192.75 55.722656 191.761719 55.722656 C 189.335938 55.722656 187.816406 54.378906 187.816406 52.226562 Z M 194.1875 50.976562 C 194.203125 50.929688 194.203125 50.816406 194.203125 50.75 C 194.203125 49.746094 193.523438 48.90625 192.148438 48.90625 C 190.90625 48.90625 189.917969 49.894531 189.707031 50.976562 Z M 196.273438 55.53125 L 198.003906 47.707031 L 199.703125 47.707031 L 199.445312 48.808594 C 200.171875 48 200.996094 47.527344 202.273438 47.527344 L 201.902344 49.230469 C 201.789062 49.195312 201.515625 49.148438 201.207031 49.148438 C 200.398438 49.148438 199.605469 49.648438 199.136719 50.234375 L 197.972656 55.53125 Z M 201.351562 54.332031 L 202.355469 53.148438 C 202.792969 53.730469 203.875 54.378906 205.023438 54.378906 C 205.898438 54.378906 206.429688 53.878906 206.429688 53.328125 C 206.429688 52.792969 205.703125 52.53125 204.878906 52.242188 C 203.746094 51.835938 202.402344 51.351562 202.402344 50.054688 C 202.402344 48.726562 203.503906 47.511719 205.507812 47.511719 C 206.835938 47.511719 208.03125 48.046875 208.679688 48.792969 L 207.773438 49.910156 C 207.402344 49.390625 206.429688 48.871094 205.460938 48.871094 C 204.585938 48.871094 204.085938 49.277344 204.085938 49.796875 C 204.085938 50.25 204.78125 50.507812 205.589844 50.800781 C 206.738281 51.203125 208.128906 51.707031 208.128906 53.050781 C 208.128906 54.492188 206.933594 55.722656 204.878906 55.722656 C 203.457031 55.722656 202.160156 55.238281 201.351562 54.332031 Z M 213.351562 55.53125 L 214.761719 49.195312 L 213.464844 49.195312 L 213.789062 47.707031 L 215.082031 47.707031 L 215.179688 47.269531 C 215.554688 45.550781 216.476562 44.566406 217.945312 44.566406 C 218.527344 44.566406 219.078125 44.679688 219.546875 44.984375 L 218.933594 46.183594 C 218.722656 46.023438 218.433594 45.957031 218.140625 45.957031 C 217.460938 45.957031 217.074219 46.378906 216.878906 47.269531 L 216.78125 47.707031 L 218.367188 47.707031 L 218.042969 49.195312 L 216.457031 49.195312 L 215.050781 55.53125 Z M 217.980469 52.210938 C 217.980469 49.761719 219.839844 47.511719 222.425781 47.511719 C 224.804688 47.511719 226.179688 48.984375 226.179688 51.042969 C 226.179688 53.488281 224.320312 55.722656 221.730469 55.722656 C 219.355469 55.722656 217.980469 54.265625 217.980469 52.210938 Z M 224.414062 51.109375 C 224.414062 49.828125 223.65625 49.019531 222.378906 49.019531 C 220.824219 49.019531 219.742188 50.542969 219.742188 52.128906 C 219.742188 53.40625 220.5 54.21875 221.78125 54.21875 C 223.332031 54.21875 224.414062 52.710938 224.414062 51.109375 Z M 226.710938 55.53125 L 228.441406 47.707031 L 230.140625 47.707031 L 229.882812 48.808594 C 230.609375 48 231.433594 47.527344 232.710938 47.527344 L 232.339844 49.230469 C 232.226562 49.195312 231.953125 49.148438 231.644531 49.148438 C 230.835938 49.148438 230.042969 49.648438 229.574219 50.234375 L 228.410156 55.53125 Z M 236.59375 50.929688 C 236.59375 47.074219 239.523438 44.546875 242.773438 44.546875 C 245.199219 44.546875 246.71875 45.796875 247.398438 47.382812 L 245.585938 48.03125 C 245.070312 46.832031 243.96875 46.234375 242.675781 46.234375 C 240.523438 46.234375 238.566406 48.128906 238.566406 50.816406 C 238.566406 52.695312 239.84375 54.039062 241.867188 54.039062 C 242.820312 54.039062 243.839844 53.585938 244.550781 52.808594 L 245.992188 53.8125 C 244.792969 55.238281 243.128906 55.722656 241.753906 55.722656 C 238.828125 55.722656 236.59375 53.84375 236.59375 50.929688 Z M 246.785156 55.53125 L 249.160156 44.726562 L 250.859375 44.726562 L 248.480469 55.53125 Z M 250.730469 52.210938 C 250.730469 49.761719 252.589844 47.511719 255.175781 47.511719 C 257.554688 47.511719 258.929688 48.984375 258.929688 51.042969 C 258.929688 53.488281 257.070312 55.722656 254.480469 55.722656 C 252.105469 55.722656 250.730469 54.265625 250.730469 52.210938 Z M 257.167969 51.109375 C 257.167969 49.828125 256.40625 49.019531 255.128906 49.019531 C 253.578125 49.019531 252.492188 50.542969 252.492188 52.128906 C 252.492188 53.40625 253.253906 54.21875 254.53125 54.21875 C 256.082031 54.21875 257.167969 52.710938 257.167969 51.109375 Z M 262.890625 47.707031 L 261.808594 52.597656 C 261.777344 52.742188 261.726562 52.96875 261.726562 53.101562 C 261.726562 53.894531 262.359375 54.21875 263.183594 54.21875 C 263.976562 54.21875 264.753906 53.667969 265.269531 53.148438 L 266.464844 47.707031 L 268.164062 47.707031 L 266.433594 55.53125 L 264.734375 55.53125 L 264.976562 54.460938 C 264.332031 55.074219 263.441406 55.722656 262.308594 55.722656 C 260.855469 55.722656 259.917969 54.980469 259.917969 53.746094 C 259.917969 53.601562 259.964844 53.261719 259.996094 53.101562 L 261.195312 47.707031 Z M 275.378906 48.824219 L 276.285156 44.726562 L 277.980469 44.726562 L 275.589844 55.53125 L 273.890625 55.53125 L 274.117188 54.492188 C 273.46875 55.285156 272.660156 55.722656 271.675781 55.722656 C 269.894531 55.722656 268.683594 54.558594 268.683594 52.5 C 268.683594 50.054688 270.1875 47.511719 272.789062 47.511719 C 273.90625 47.511719 274.859375 48.015625 275.378906 48.824219 Z M 270.460938 52.160156 C 270.460938 53.425781 271.253906 54.21875 272.386719 54.21875 C 273.210938 54.21875 273.972656 53.730469 274.421875 53.117188 L 275.101562 50.085938 C 274.746094 49.488281 274.003906 49.019531 273.050781 49.019531 C 271.511719 49.019531 270.460938 50.523438 270.460938 52.160156 Z M 282.058594 50.929688 C 282.058594 47.367188 284.757812 44.546875 288.234375 44.546875 C 291.128906 44.546875 293.394531 46.363281 293.394531 49.328125 C 293.394531 52.90625 290.695312 55.722656 287.214844 55.722656 C 284.320312 55.722656 282.058594 53.910156 282.058594 50.929688 Z M 291.421875 49.457031 C 291.421875 47.429688 289.964844 46.234375 288.121094 46.234375 C 285.875 46.234375 284.03125 48.207031 284.03125 50.816406 C 284.03125 52.855469 285.46875 54.039062 287.328125 54.039062 C 289.5625 54.039062 291.421875 52.0625 291.421875 49.457031 Z M 295.53125 54.410156 L 294.625 58.507812 L 292.925781 58.507812 L 295.320312 47.707031 L 297.019531 47.707031 L 296.773438 48.742188 C 297.4375 47.949219 298.246094 47.511719 299.234375 47.511719 C 300.996094 47.511719 302.226562 48.695312 302.226562 50.75 C 302.226562 53.179688 300.707031 55.722656 298.117188 55.722656 C 296.984375 55.722656 296.046875 55.222656 295.53125 54.410156 Z M 300.445312 51.089844 C 300.445312 49.828125 299.636719 49.019531 298.523438 49.019531 C 297.679688 49.019531 296.9375 49.519531 296.46875 50.136719 L 295.804688 53.164062 C 296.160156 53.765625 296.90625 54.21875 297.859375 54.21875 C 299.394531 54.21875 300.445312 52.710938 300.445312 51.089844 Z M 302.402344 54.332031 L 303.40625 53.148438 C 303.84375 53.730469 304.925781 54.378906 306.074219 54.378906 C 306.949219 54.378906 307.480469 53.878906 307.480469 53.328125 C 307.480469 52.792969 306.753906 52.53125 305.929688 52.242188 C 304.796875 51.835938 303.453125 51.351562 303.453125 50.054688 C 303.453125 48.726562 304.554688 47.511719 306.558594 47.511719 C 307.886719 47.511719 309.082031 48.046875 309.730469 48.792969 L 308.824219 49.910156 C 308.453125 49.390625 307.480469 48.871094 306.511719 48.871094 C 305.636719 48.871094 305.136719 49.277344 305.136719 49.796875 C 305.136719 50.25 305.832031 50.507812 306.640625 50.800781 C 307.789062 51.203125 309.179688 51.707031 309.179688 53.050781 C 309.179688 54.492188 307.984375 55.722656 305.929688 55.722656 C 304.507812 55.722656 303.210938 55.238281 302.402344 54.332031 Z M 302.402344 54.332031 "/>
<path style=" stroke:none;fill-rule:nonzero;fill:rgb(8.235294%,77.647059%,70.588235%);fill-opacity:1;" d="M 57.125 46.421875 C 58.140625 48.515625 57.488281 51.039062 55.589844 52.382812 C 53.6875 53.726562 51.09375 53.496094 49.457031 51.839844 C 47.824219 50.179688 47.628906 47.582031 48.996094 45.699219 C 50.363281 43.816406 52.894531 43.199219 54.976562 44.242188 L 57.050781 42.167969 L 46.339844 31.453125 L 18.980469 58.832031 L 72.308594 58.832031 C 72.722656 58.832031 73.179688 58.824219 73.664062 58.796875 L 59.210938 44.332031 Z M 57.125 46.421875 "/>
<path style=" stroke:none;fill-rule:nonzero;fill:rgb(35.686275%,74.117647%,90.980392%);fill-opacity:1;" d="M 22.75 43.421875 C 20.574219 44.277344 18.101562 43.433594 16.902344 41.433594 C 15.703125 39.433594 16.128906 36.859375 17.910156 35.351562 C 19.691406 33.839844 22.304688 33.839844 24.085938 35.347656 C 25.867188 36.855469 26.296875 39.429688 25.097656 41.433594 L 28.609375 44.9375 L 44.289062 29.285156 C 44.289062 29.285156 31 16.136719 30.984375 16.183594 C 28.519531 14.132812 21.886719 9.554688 15.078125 14.296875 C 8.269531 19.039062 10.160156 27.347656 10.402344 28.152344 C 9.714844 28.394531 0 32.421875 0 44.101562 C 0 55.207031 10.390625 58.535156 14.691406 58.832031 L 26.4375 47.105469 Z M 22.75 43.421875 "/>
<path style=" stroke:none;fill-rule:nonzero;fill:rgb(97.647059%,76.470588%,23.921569%);fill-opacity:1;" d="M 79.566406 23.984375 L 74.347656 29.199219 L 77.386719 32.234375 C 79.460938 31.175781 81.996094 31.773438 83.378906 33.644531 C 84.765625 35.515625 84.589844 38.113281 82.96875 39.78125 C 81.34375 41.449219 78.75 41.703125 76.835938 40.375 C 74.925781 39.046875 74.253906 36.53125 75.253906 34.429688 L 72.183594 31.363281 L 61.460938 42.070312 L 77.5625 58.152344 C 83.6875 56.808594 91.363281 52.71875 92.339844 42.304688 C 93.476562 30.140625 82.265625 25.011719 79.566406 23.984375 Z M 79.566406 23.984375 "/>
<path style=" stroke:none;fill-rule:nonzero;fill:rgb(98.039216%,41.960784%,40.392157%);fill-opacity:1;" d="M 42.773438 14.90625 C 41.675781 12.847656 42.226562 10.292969 44.074219 8.871094 C 45.921875 7.449219 48.523438 7.574219 50.226562 9.171875 C 51.925781 10.765625 52.226562 13.359375 50.9375 15.300781 C 49.644531 17.242188 47.136719 17.964844 45.015625 17.003906 L 40.664062 21.363281 L 59.320312 40.050781 L 78.636719 20.695312 C 77.40625 14.273438 73.195312 5.535156 61.449219 1.25 C 49.265625 -3.195312 36.761719 5.042969 32.3125 12.992188 L 38.5 19.191406 Z M 42.773438 14.90625 "/>
</g>
</svg>
